<svg xmlns="http://www.w3.org/2000/svg" viewBox="0 0 100 100" width="100" height="100">
  <!--
    GENERATED by scripts/make-icons.mjs from scripts/mark.mjs. Do not edit:
    run `npm run brand`. Indigo 500 ground, Cream mark, both from the token
    table. The mark fills EVEN-ODD — its mitre seams are holes, so they show
    the indigo ground through rather than being painted on top of it.
  -->
  <rect width="100" height="100" rx="22" fill="#6467F2" />
  <path
    d="M24 0L50 0A50 50 0 0 1 100 50L100 76L76 76L76 50A26 26 0 0 0 50 24L24 24ZM0 0H22V24H0ZM76 78H100V100H76ZM24 0L26 0L50 24L48 24ZM76 76L100 52L100 50L76 74Z"
    fill-rule="evenodd"
    transform="translate(19 19) scale(0.6200)"
    fill="#F7F3EB"
  />
</svg>
